<?xml version="1.0" encoding="UTF-8" standalone="no"?>
<!DOCTYPE svg PUBLIC "-//W3C//DTD SVG 1.1//EN" "http://www.w3.org/Graphics/SVG/1.1/DTD/svg11.dtd">
<svg version="1.1" xmlns="http://www.w3.org/2000/svg" xmlns:xlink="http://www.w3.org/1999/xlink" preserveAspectRatio="xMidYMid meet" viewBox="0 0 640 640" width="640" height="640"><defs><path d="M527.98 121.73C513.86 97.83 489.44 81.73 461.9 78.19C406.52 71.03 233.44 71.03 178.06 78.19C150.54 81.75 126.12 97.85 111.99 121.73C98.57 144.49 80.33 180.35 59.77 234.17C59.77 234.17 54.67 261.21 28.51 295.27C16.93 310.37 9.85 328.58 8.93 347.57C6.95 388.8 18.89 397.86 29.57 491.14C30.41 498.48 36.61 504 44.01 504C99.21 504 540.81 504 596.01 504C603.41 504 609.61 498.46 610.45 491.14C613.45 464.98 622.35 411.92 622.35 411.92C630.15 385.54 631.85 364.04 631.07 347.57C630.13 328.58 623.07 310.37 611.47 295.27C585.31 261.21 586.46 246.39 580.21 234.17C559.67 180.35 541.41 144.49 527.98 121.73Z" id="b76TKfve7"></path><path d="M527.98 121.73C513.86 97.83 489.44 81.73 461.9 78.19C406.52 71.03 233.44 71.03 178.06 78.19C150.54 81.75 126.12 97.85 111.99 121.73C98.57 144.49 80.33 180.35 59.77 234.17C59.77 234.17 54.67 261.21 28.51 295.27C16.93 310.37 9.85 328.58 8.93 347.57C6.95 388.8 18.89 397.86 29.57 491.14C30.41 498.48 36.61 504 44.01 504C99.21 504 540.81 504 596.01 504C603.41 504 609.61 498.46 610.45 491.14C613.45 464.98 622.35 411.92 622.35 411.92C630.15 385.54 631.85 364.04 631.07 347.57C630.13 328.58 623.07 310.37 611.47 295.27C585.31 261.21 586.46 246.39 580.21 234.17C559.67 180.35 541.41 144.49 527.98 121.73Z" id="blvofhgyO"></path><path d="M527.98 121.73C513.86 97.83 489.44 81.73 461.9 78.19C406.52 71.03 233.44 71.03 178.06 78.19C150.54 81.75 126.12 97.85 111.99 121.73C98.57 144.49 80.33 180.35 59.77 234.17C59.77 234.17 54.67 261.21 28.51 295.27C16.93 310.37 9.85 328.58 8.93 347.57C6.95 388.8 18.89 397.86 29.57 491.14C30.41 498.48 36.61 504 44.01 504C99.21 504 540.81 504 596.01 504C603.41 504 609.61 498.46 610.45 491.14C613.45 464.98 622.35 411.92 622.35 411.92C630.15 385.54 631.85 364.04 631.07 347.57C630.13 328.58 623.07 310.37 611.47 295.27C585.31 261.21 586.46 246.39 580.21 234.17C559.67 180.35 541.41 144.49 527.98 121.73Z" id="b2EYdAqPKd"></path><path d="M527.98 121.73C513.86 97.83 489.44 81.73 461.9 78.19C406.52 71.03 233.44 71.03 178.06 78.19C150.54 81.75 126.12 97.85 111.99 121.73C98.57 144.49 80.33 180.35 59.77 234.17C59.77 234.17 54.67 261.21 28.51 295.27C16.93 310.37 9.85 328.58 8.93 347.57C6.95 388.8 18.89 397.86 29.57 491.14C30.41 498.48 36.61 504 44.01 504C99.21 504 540.81 504 596.01 504C603.41 504 609.61 498.46 610.45 491.14C613.45 464.98 622.35 411.92 622.35 411.92C630.15 385.54 631.85 364.04 631.07 347.57C630.13 328.58 623.07 310.37 611.47 295.27C585.31 261.21 586.46 246.39 580.21 234.17C559.67 180.35 541.41 144.49 527.98 121.73Z" id="a3oVhG0BN8"></path><path d="M179.36 88.35C155.04 91.61 133.05 106.51 120.59 127.85C103.93 156.43 87.19 192.31 71.23 232.01C236.76 245.03 403.04 245.03 568.58 232.01C552.38 191.47 535.86 156.07 519.42 127.85C506.96 106.51 484.98 91.61 460.66 88.35C405.16 80.99 234.46 81.05 179.36 88.35Z" id="a33gOF6liv"></path><path d="M179.36 88.35C155.04 91.61 133.05 106.51 120.59 127.85C103.93 156.43 87.19 192.31 71.23 232.01C236.76 245.03 403.04 245.03 568.58 232.01C552.38 191.47 535.86 156.07 519.42 127.85C506.96 106.51 484.98 91.61 460.66 88.35C405.16 80.99 234.46 81.05 179.36 88.35Z" id="ax5eLO64u"></path><path d="M179.36 88.35C155.04 91.61 133.05 106.51 120.59 127.85C103.93 156.43 87.19 192.31 71.23 232.01C236.76 245.03 403.04 245.03 568.58 232.01C552.38 191.47 535.86 156.07 519.42 127.85C506.96 106.51 484.98 91.61 460.66 88.35C405.16 80.99 234.46 81.05 179.36 88.35Z" id="aDZnESeRO"></path><path d="M179.36 88.35C155.04 91.61 133.05 106.51 120.59 127.85C103.93 156.43 87.19 192.31 71.23 232.01C236.76 245.03 403.04 245.03 568.58 232.01C552.38 191.47 535.86 156.07 519.42 127.85C506.96 106.51 484.98 91.61 460.66 88.35C405.16 80.99 234.46 81.05 179.36 88.35Z" id="cQ1L3DHKE"></path><path d="M481.58 314.78C481.1 315.4 480.64 316.02 480.2 316.65C468.12 334.6 483.98 358.48 505.4 355.44C536.38 351.06 561.9 342.08 574.86 336.88C582.28 333.9 588.08 327.7 589.98 319.91C590.16 319.17 590.32 318.44 590.46 317.71C595.22 292.03 570.02 271.11 545.08 278.89C538.76 280.87 532.88 283.65 527.96 286.41C519 291.41 509.8 296.07 500.2 299.71C484.28 305.76 485.3 311.77 481.58 314.78Z" id="b16TxZvuMv"></path><path d="M481.58 314.78C481.1 315.4 480.64 316.02 480.2 316.65C468.12 334.6 483.98 358.48 505.4 355.44C536.38 351.06 561.9 342.08 574.86 336.88C582.28 333.9 588.08 327.7 589.98 319.91C590.16 319.17 590.32 318.44 590.46 317.71C595.22 292.03 570.02 271.11 545.08 278.89C538.76 280.87 532.88 283.65 527.96 286.41C519 291.41 509.8 296.07 500.2 299.71C484.28 305.76 485.3 311.77 481.58 314.78Z" id="b1gns0d1Y5"></path><path d="M481.58 314.78C481.1 315.4 480.64 316.02 480.2 316.65C468.12 334.6 483.98 358.48 505.4 355.44C536.38 351.06 561.9 342.08 574.86 336.88C582.28 333.9 588.08 327.7 589.98 319.91C590.16 319.17 590.32 318.44 590.46 317.71C595.22 292.03 570.02 271.11 545.08 278.89C538.76 280.87 532.88 283.65 527.96 286.41C519 291.41 509.8 296.07 500.2 299.71C484.28 305.76 485.3 311.77 481.58 314.78Z" id="bs5wLcLmW"></path><path d="M481.58 314.78C481.1 315.4 480.64 316.02 480.2 316.65C468.12 334.6 483.98 358.48 505.4 355.44C536.38 351.06 561.9 342.08 574.86 336.88C582.28 333.9 588.08 327.7 589.98 319.91C590.16 319.17 590.32 318.44 590.46 317.71C595.22 292.03 570.02 271.11 545.08 278.89C538.76 280.87 532.88 283.65 527.96 286.41C519 291.41 509.8 296.07 500.2 299.71C484.28 305.76 485.3 311.77 481.58 314.78Z" id="bx9ENmYDb"></path><path d="M574.07 467.04C577.73 470.7 584.01 468.1 584.01 462.92C584.01 459.47 584.01 431.9 584.01 428.46C584 425.24 581.4 422.64 578.19 422.64C571.29 422.64 547.17 422.64 543.72 422.64C538.54 422.64 535.94 428.9 539.6 432.58C543.05 436.02 570.62 463.59 574.07 467.04Z" id="ajB5xJkX5"></path><path d="M574.07 467.04C577.73 470.7 584.01 468.1 584.01 462.92C584.01 459.47 584.01 431.9 584.01 428.46C584 425.24 581.4 422.64 578.19 422.64C571.29 422.64 547.17 422.64 543.72 422.64C538.54 422.64 535.94 428.9 539.6 432.58C543.05 436.02 570.62 463.59 574.07 467.04Z" id="a1zuvdUfWo"></path><path d="M574.07 467.04C577.73 470.7 584.01 468.1 584.01 462.92C584.01 459.47 584.01 431.9 584.01 428.46C584 425.24 581.4 422.64 578.19 422.64C571.29 422.64 547.17 422.64 543.72 422.64C538.54 422.64 535.94 428.9 539.6 432.58C543.05 436.02 570.62 463.59 574.07 467.04Z" id="g2fBN6fDxL"></path><path d="M574.07 467.04C577.73 470.7 584.01 468.1 584.01 462.92C584.01 459.47 584.01 431.9 584.01 428.46C584 425.24 581.4 422.64 578.19 422.64C571.29 422.64 547.17 422.64 543.72 422.64C538.54 422.64 535.94 428.9 539.6 432.58C543.05 436.02 570.62 463.59 574.07 467.04Z" id="b2EIIZtzx3"></path><path d="M529.68 542.48C529.68 556.1 540.72 567.16 554.36 567.16C558.53 567.16 591.84 567.16 596.01 567.16C609.63 567.16 620.69 556.12 620.69 542.48C620.69 530.43 620.69 434.06 620.69 422.02C617.95 438.7 612.63 472.04 610.45 491.1C609.6 498.46 603.38 504 595.99 504C591.57 504 569.46 504 529.68 504C529.68 527.09 529.68 539.91 529.68 542.48Z" id="ahUirAHpH"></path><path d="M529.68 542.48C529.68 556.1 540.72 567.16 554.36 567.16C558.53 567.16 591.84 567.16 596.01 567.16C609.63 567.16 620.69 556.12 620.69 542.48C620.69 530.43 620.69 434.06 620.69 422.02C617.95 438.7 612.63 472.04 610.45 491.1C609.6 498.46 603.38 504 595.99 504C591.57 504 569.46 504 529.68 504C529.68 527.09 529.68 539.91 529.68 542.48Z" id="cgWEF44NE"></path><path d="M529.68 542.48C529.68 556.1 540.72 567.16 554.36 567.16C558.53 567.16 591.84 567.16 596.01 567.16C609.63 567.16 620.69 556.12 620.69 542.48C620.69 530.43 620.69 434.06 620.69 422.02C617.95 438.7 612.63 472.04 610.45 491.1C609.6 498.46 603.38 504 595.99 504C591.57 504 569.46 504 529.68 504C529.68 527.09 529.68 539.91 529.68 542.48Z" id="co78fsxm7"></path><path d="M529.68 542.48C529.68 556.1 540.72 567.16 554.36 567.16C558.53 567.16 591.84 567.16 596.01 567.16C609.63 567.16 620.69 556.12 620.69 542.48C620.69 530.43 620.69 434.06 620.69 422.02C617.95 438.7 612.63 472.04 610.45 491.1C609.6 498.46 603.38 504 595.99 504C591.57 504 569.46 504 529.68 504C529.68 527.09 529.68 539.91 529.68 542.48Z" id="bpr2nutVV"></path><path d="M583.99 209.33C583.99 210.12 583.99 214.08 583.99 221.19C583.4 221.19 580.46 221.19 575.17 221.19C578.2 228.4 579.88 232.41 580.22 233.21C591.87 233.21 598.33 233.21 599.63 233.21C609.67 233.21 619.61 231.05 628.73 226.87C636.95 223.11 641.55 214.11 639.53 205.07C637.53 196.11 629.11 190.03 619.93 190.03C618.26 190.03 604.95 190.03 603.29 190.03C592.62 190.03 583.99 198.67 583.99 209.33Z" id="b4duVSeoO7"></path><path d="M583.99 209.33C583.99 210.12 583.99 214.08 583.99 221.19C583.4 221.19 580.46 221.19 575.17 221.19C578.2 228.4 579.88 232.41 580.22 233.21C591.87 233.21 598.33 233.21 599.63 233.21C609.67 233.21 619.61 231.05 628.73 226.87C636.95 223.11 641.55 214.11 639.53 205.07C637.53 196.11 629.11 190.03 619.93 190.03C618.26 190.03 604.95 190.03 603.29 190.03C592.62 190.03 583.99 198.67 583.99 209.33Z" id="d1VOEBh5Dy"></path><path d="M583.99 209.33C583.99 210.12 583.99 214.08 583.99 221.19C583.4 221.19 580.46 221.19 575.17 221.19C578.2 228.4 579.88 232.41 580.22 233.21C591.87 233.21 598.33 233.21 599.63 233.21C609.67 233.21 619.61 231.05 628.73 226.87C636.95 223.11 641.55 214.11 639.53 205.07C637.53 196.11 629.11 190.03 619.93 190.03C618.26 190.03 604.95 190.03 603.29 190.03C592.62 190.03 583.99 198.67 583.99 209.33Z" id="a1fSoSVg9"></path><path d="M583.99 209.33C583.99 210.12 583.99 214.08 583.99 221.19C583.4 221.19 580.46 221.19 575.17 221.19C578.2 228.4 579.88 232.41 580.22 233.21C591.87 233.21 598.33 233.21 599.63 233.21C609.67 233.21 619.61 231.05 628.73 226.87C636.95 223.11 641.55 214.11 639.53 205.07C637.53 196.11 629.11 190.03 619.93 190.03C618.26 190.03 604.95 190.03 603.29 190.03C592.62 190.03 583.99 198.67 583.99 209.33Z" id="ckuzlLPy2"></path><path d="M556 334.24C569.4 334.24 580.26 323.37 580.26 309.97C580.26 296.58 569.4 285.71 556 285.71C542.61 285.71 531.74 296.58 531.74 309.97C531.74 323.37 542.61 334.24 556 334.24Z" id="b1koaxlfrr"></path><path d="M556 334.24C569.4 334.24 580.26 323.37 580.26 309.97C580.26 296.58 569.4 285.71 556 285.71C542.61 285.71 531.74 296.58 531.74 309.97C531.74 323.37 542.61 334.24 556 334.24Z" id="hDQFinONJ"></path><path d="M556 334.24C569.4 334.24 580.26 323.37 580.26 309.97C580.26 296.58 569.4 285.71 556 285.71C542.61 285.71 531.74 296.58 531.74 309.97C531.74 323.37 542.61 334.24 556 334.24Z" id="a1VIAE7qIQ"></path><path d="M556 334.24C569.4 334.24 580.26 323.37 580.26 309.97C580.26 296.58 569.4 285.71 556 285.71C542.61 285.71 531.74 296.58 531.74 309.97C531.74 323.37 542.61 334.24 556 334.24Z" id="hl06IlROX"></path><path d="M507.2 346.94C517.04 346.94 525.02 338.96 525.02 329.12C525.02 319.27 517.04 311.29 507.2 311.29C497.36 311.29 489.38 319.27 489.38 329.12C489.38 338.96 497.36 346.94 507.2 346.94Z" id="c7idEiAw5"></path><path d="M507.2 346.94C517.04 346.94 525.02 338.96 525.02 329.12C525.02 319.27 517.04 311.29 507.2 311.29C497.36 311.29 489.38 319.27 489.38 329.12C489.38 338.96 497.36 346.94 507.2 346.94Z" id="b63chtwg9"></path><path d="M507.2 346.94C517.04 346.94 525.02 338.96 525.02 329.12C525.02 319.27 517.04 311.29 507.2 311.29C497.36 311.29 489.38 319.27 489.38 329.12C489.38 338.96 497.36 346.94 507.2 346.94Z" id="d9V4lY2m"></path><path d="M507.2 346.94C517.04 346.94 525.02 338.96 525.02 329.12C525.02 319.27 517.04 311.29 507.2 311.29C497.36 311.29 489.38 319.27 489.38 329.12C489.38 338.96 497.36 346.94 507.2 346.94Z" id="d1NR8qIJhm"></path><path d="M178.98 329.14L461.02 329.14L433.16 377.66L206.84 377.66L178.98 329.14Z" id="a2vavY6V5j"></path><path d="M178.98 329.14L461.02 329.14L433.16 377.66L206.84 377.66L178.98 329.14Z" id="b3LkbMTCIo"></path><path d="M178.98 329.14L461.02 329.14L433.16 377.66L206.84 377.66L178.98 329.14Z" id="b1WjsosOBn"></path><path d="M178.98 329.14L461.02 329.14L433.16 377.66L206.84 377.66L178.98 329.14Z" id="a1oYTV449"></path><path d="M112.01 286.41C107.07 283.65 101.21 280.87 94.89 278.89C69.97 271.09 44.75 292.03 49.49 317.71C49.63 318.45 49.79 319.17 49.95 319.91C51.85 327.69 57.65 333.9 65.07 336.88C78.03 342.08 103.55 351.06 134.56 355.44C156 358.48 171.86 334.6 159.78 316.65C159.36 316.02 158.9 315.4 158.4 314.78C154.67 311.77 155.7 305.76 139.77 299.71C130.17 296.07 120.99 291.41 112.01 286.41Z" id="f4v8C5YsBW"></path><path d="M112.01 286.41C107.07 283.65 101.21 280.87 94.89 278.89C69.97 271.09 44.75 292.03 49.49 317.71C49.63 318.45 49.79 319.17 49.95 319.91C51.85 327.69 57.65 333.9 65.07 336.88C78.03 342.08 103.55 351.06 134.56 355.44C156 358.48 171.86 334.6 159.78 316.65C159.36 316.02 158.9 315.4 158.4 314.78C154.67 311.77 155.7 305.76 139.77 299.71C130.17 296.07 120.99 291.41 112.01 286.41Z" id="a3uYSyqazc"></path><path d="M112.01 286.41C107.07 283.65 101.21 280.87 94.89 278.89C69.97 271.09 44.75 292.03 49.49 317.71C49.63 318.45 49.79 319.17 49.95 319.91C51.85 327.69 57.65 333.9 65.07 336.88C78.03 342.08 103.55 351.06 134.56 355.44C156 358.48 171.86 334.6 159.78 316.65C159.36 316.02 158.9 315.4 158.4 314.78C154.67 311.77 155.7 305.76 139.77 299.71C130.17 296.07 120.99 291.41 112.01 286.41Z" id="d2i1DU8qEo"></path><path d="M112.01 286.41C107.07 283.65 101.21 280.87 94.89 278.89C69.97 271.09 44.75 292.03 49.49 317.71C49.63 318.45 49.79 319.17 49.95 319.91C51.85 327.69 57.65 333.9 65.07 336.88C78.03 342.08 103.55 351.06 134.56 355.44C156 358.48 171.86 334.6 159.78 316.65C159.36 316.02 158.9 315.4 158.4 314.78C154.67 311.77 155.7 305.76 139.77 299.71C130.17 296.07 120.99 291.41 112.01 286.41Z" id="a9jDPqAA"></path><path d="M55.99 462.92C55.99 468.1 62.27 470.7 65.93 467.04C69.38 463.59 96.95 436.02 100.39 432.58C104.05 428.92 101.45 422.64 96.27 422.64C89.38 422.64 65.26 422.64 61.81 422.64C58.59 422.64 55.99 425.24 55.99 428.46C55.99 431.9 55.99 459.47 55.99 462.92Z" id="c2m6pNgDBH"></path><path d="M55.99 462.92C55.99 468.1 62.27 470.7 65.93 467.04C69.38 463.59 96.95 436.02 100.39 432.58C104.05 428.92 101.45 422.64 96.27 422.64C89.38 422.64 65.26 422.64 61.81 422.64C58.59 422.64 55.99 425.24 55.99 428.46C55.99 431.9 55.99 459.47 55.99 462.92Z" id="c2PirFfPpx"></path><path d="M55.99 462.92C55.99 468.1 62.27 470.7 65.93 467.04C69.38 463.59 96.95 436.02 100.39 432.58C104.05 428.92 101.45 422.64 96.27 422.64C89.38 422.64 65.26 422.64 61.81 422.64C58.59 422.64 55.99 425.24 55.99 428.46C55.99 431.9 55.99 459.47 55.99 462.92Z" id="c5KBFU6PB"></path><path d="M55.99 462.92C55.99 468.1 62.27 470.7 65.93 467.04C69.38 463.59 96.95 436.02 100.39 432.58C104.05 428.92 101.45 422.64 96.27 422.64C89.38 422.64 65.26 422.64 61.81 422.64C58.59 422.64 55.99 425.24 55.99 428.46C55.99 431.9 55.99 459.47 55.99 462.92Z" id="a29aErvymo"></path><path d="M90.53 482.78C86.4 482.78 65.73 482.78 28.51 482.78C28.97 487.58 29.22 490.25 29.27 490.78C29.97 498.3 36.25 504 43.77 504C99.02 504 540.98 504 596.23 504C603.75 504 610.03 498.3 610.73 490.78C610.78 490.25 611.03 487.58 611.49 482.78C607.35 482.78 586.67 482.78 549.44 482.78C549.44 482.78 549.44 482.78 549.44 482.78C508.3 450.7 482.59 430.66 472.3 422.64C441.84 422.64 198.14 422.64 167.68 422.64C152.25 434.67 126.44 420.7 90.53 482.78Z" id="cRJlbZl4g"></path><path d="M90.53 482.78C86.4 482.78 65.73 482.78 28.51 482.78C28.97 487.58 29.22 490.25 29.27 490.78C29.97 498.3 36.25 504 43.77 504C99.02 504 540.98 504 596.23 504C603.75 504 610.03 498.3 610.73 490.78C610.78 490.25 611.03 487.58 611.49 482.78C607.35 482.78 586.67 482.78 549.44 482.78C549.44 482.78 549.44 482.78 549.44 482.78C508.3 450.7 482.59 430.66 472.3 422.64C441.84 422.64 198.14 422.64 167.68 422.64C152.25 434.67 126.44 420.7 90.53 482.78Z" id="cjtW7IzDH"></path><path d="M90.53 482.78C86.4 482.78 65.73 482.78 28.51 482.78C28.97 487.58 29.22 490.25 29.27 490.78C29.97 498.3 36.25 504 43.77 504C99.02 504 540.98 504 596.23 504C603.75 504 610.03 498.3 610.73 490.78C610.78 490.25 611.03 487.58 611.49 482.78C607.35 482.78 586.67 482.78 549.44 482.78C549.44 482.78 549.44 482.78 549.44 482.78C508.3 450.7 482.59 430.66 472.3 422.64C441.84 422.64 198.14 422.64 167.68 422.64C152.25 434.67 126.44 420.7 90.53 482.78Z" id="dGjoZPmwN"></path><path d="M90.53 482.78C86.4 482.78 65.73 482.78 28.51 482.78C28.97 487.58 29.22 490.25 29.27 490.78C29.97 498.3 36.25 504 43.77 504C99.02 504 540.98 504 596.23 504C603.75 504 610.03 498.3 610.73 490.78C610.78 490.25 611.03 487.58 611.49 482.78C607.35 482.78 586.67 482.78 549.44 482.78C549.44 482.78 549.44 482.78 549.44 482.78C508.3 450.7 482.59 430.66 472.3 422.64C441.84 422.64 198.14 422.64 167.68 422.64C152.25 434.67 126.44 420.7 90.53 482.78Z" id="h1sP40ZSZ"></path><path d="M19.31 542.5C19.31 556.12 30.35 567.18 43.99 567.18C48.16 567.18 81.47 567.18 85.63 567.18C99.25 567.18 110.32 556.14 110.32 542.5C110.32 539.94 110.32 527.11 110.32 504.02C103.69 504.02 50.64 504.02 44.01 504.02C34.93 500.31 30.11 496.01 29.55 491.12C27.37 472.06 22.03 438.7 19.31 422.04C19.31 434.08 19.31 530.45 19.31 542.5Z" id="b1fKVxHicv"></path><path d="M19.31 542.5C19.31 556.12 30.35 567.18 43.99 567.18C48.16 567.18 81.47 567.18 85.63 567.18C99.25 567.18 110.32 556.14 110.32 542.5C110.32 539.94 110.32 527.11 110.32 504.02C103.69 504.02 50.64 504.02 44.01 504.02C34.93 500.31 30.11 496.01 29.55 491.12C27.37 472.06 22.03 438.7 19.31 422.04C19.31 434.08 19.31 530.45 19.31 542.5Z" id="hbSAh01Sa"></path><path d="M19.31 542.5C19.31 556.12 30.35 567.18 43.99 567.18C48.16 567.18 81.47 567.18 85.63 567.18C99.25 567.18 110.32 556.14 110.32 542.5C110.32 539.94 110.32 527.11 110.32 504.02C103.69 504.02 50.64 504.02 44.01 504.02C34.93 500.31 30.11 496.01 29.55 491.12C27.37 472.06 22.03 438.7 19.31 422.04C19.31 434.08 19.31 530.45 19.31 542.5Z" id="bkLdMV11X"></path><path d="M19.31 542.5C19.31 556.12 30.35 567.18 43.99 567.18C48.16 567.18 81.47 567.18 85.63 567.18C99.25 567.18 110.32 556.14 110.32 542.5C110.32 539.94 110.32 527.11 110.32 504.02C103.69 504.02 50.64 504.02 44.01 504.02C34.93 500.31 30.11 496.01 29.55 491.12C27.37 472.06 22.03 438.7 19.31 422.04C19.31 434.08 19.31 530.45 19.31 542.5Z" id="a8is3Jx8Ot"></path><path d="M20.07 190.03C10.89 190.03 2.47 196.11 0.47 205.07C-1.55 214.09 3.07 223.11 11.27 226.85C20.41 231.03 30.33 233.19 40.37 233.19C41.67 233.19 48.13 233.19 59.77 233.19C60.11 232.39 61.79 228.38 64.83 221.17C63.95 221.17 56.87 221.17 55.99 221.17C55.99 221.18 55.99 221.19 55.99 221.19C55.99 214.08 55.99 210.12 55.99 209.33C55.99 198.67 47.35 190.03 36.71 190.03C35.05 190.03 21.74 190.03 20.07 190.03Z" id="ddHKyhE25"></path><path d="M20.07 190.03C10.89 190.03 2.47 196.11 0.47 205.07C-1.55 214.09 3.07 223.11 11.27 226.85C20.41 231.03 30.33 233.19 40.37 233.19C41.67 233.19 48.13 233.19 59.77 233.19C60.11 232.39 61.79 228.38 64.83 221.17C63.95 221.17 56.87 221.17 55.99 221.17C55.99 221.18 55.99 221.19 55.99 221.19C55.99 214.08 55.99 210.12 55.99 209.33C55.99 198.67 47.35 190.03 36.71 190.03C35.05 190.03 21.74 190.03 20.07 190.03Z" id="aFGorrRDn"></path><path d="M20.07 190.03C10.89 190.03 2.47 196.11 0.47 205.07C-1.55 214.09 3.07 223.11 11.27 226.85C20.41 231.03 30.33 233.19 40.37 233.19C41.67 233.19 48.13 233.19 59.77 233.19C60.11 232.39 61.79 228.38 64.83 221.17C63.95 221.17 56.87 221.17 55.99 221.17C55.99 221.18 55.99 221.19 55.99 221.19C55.99 214.08 55.99 210.12 55.99 209.33C55.99 198.67 47.35 190.03 36.71 190.03C35.05 190.03 21.74 190.03 20.07 190.03Z" id="c26Fhz1Aou"></path><path d="M20.07 190.03C10.89 190.03 2.47 196.11 0.47 205.07C-1.55 214.09 3.07 223.11 11.27 226.85C20.41 231.03 30.33 233.19 40.37 233.19C41.67 233.19 48.13 233.19 59.77 233.19C60.11 232.39 61.79 228.38 64.83 221.17C63.95 221.17 56.87 221.17 55.99 221.17C55.99 221.18 55.99 221.19 55.99 221.19C55.99 214.08 55.99 210.12 55.99 209.33C55.99 198.67 47.35 190.03 36.71 190.03C35.05 190.03 21.74 190.03 20.07 190.03Z" id="a3beE6p3k6"></path><path d="M83.97 334.24C97.37 334.24 108.23 323.37 108.23 309.97C108.23 296.58 97.37 285.71 83.97 285.71C70.58 285.71 59.71 296.58 59.71 309.97C59.71 323.37 70.58 334.24 83.97 334.24Z" id="a2x8IR1bwe"></path><path d="M83.97 334.24C97.37 334.24 108.23 323.37 108.23 309.97C108.23 296.58 97.37 285.71 83.97 285.71C70.58 285.71 59.71 296.58 59.71 309.97C59.71 323.37 70.58 334.24 83.97 334.24Z" id="a3O79Fn9zv"></path><path d="M83.97 334.24C97.37 334.24 108.23 323.37 108.23 309.97C108.23 296.58 97.37 285.71 83.97 285.71C70.58 285.71 59.71 296.58 59.71 309.97C59.71 323.37 70.58 334.24 83.97 334.24Z" id="b6xvesDzw"></path><path d="M83.97 334.24C97.37 334.24 108.23 323.37 108.23 309.97C108.23 296.58 97.37 285.71 83.97 285.71C70.58 285.71 59.71 296.58 59.71 309.97C59.71 323.37 70.58 334.24 83.97 334.24Z" id="a1pHqeCYA"></path><path d="M132.82 346.94C142.66 346.94 150.64 338.96 150.64 329.12C150.64 319.27 142.66 311.29 132.82 311.29C122.97 311.29 114.99 319.27 114.99 329.12C114.99 338.96 122.97 346.94 132.82 346.94Z" id="b26GkXIGVW"></path><path d="M132.82 346.94C142.66 346.94 150.64 338.96 150.64 329.12C150.64 319.27 142.66 311.29 132.82 311.29C122.97 311.29 114.99 319.27 114.99 329.12C114.99 338.96 122.97 346.94 132.82 346.94Z" id="b5m0yspBh"></path><path d="M132.82 346.94C142.66 346.94 150.64 338.96 150.64 329.12C150.64 319.27 142.66 311.29 132.82 311.29C122.97 311.29 114.99 319.27 114.99 329.12C114.99 338.96 122.97 346.94 132.82 346.94Z" id="a5vujdvFX"></path><path d="M132.82 346.94C142.66 346.94 150.64 338.96 150.64 329.12C150.64 319.27 142.66 311.29 132.82 311.29C122.97 311.29 114.99 319.27 114.99 329.12C114.99 338.96 122.97 346.94 132.82 346.94Z" id="b1r8xwioBi"></path><path d="M191.02 454.22C216.81 454.22 423.17 454.22 448.96 454.22C453 454.22 456.26 450.94 456.26 446.92C456.28 442.88 453 439.62 448.98 439.62C397.39 439.62 216.81 439.62 191.02 439.62C186.98 439.62 183.72 442.9 183.72 446.92C183.72 450.96 186.98 454.22 191.02 454.22Z" id="deYHpDDbV"></path><path d="M191.02 454.22C216.81 454.22 423.17 454.22 448.96 454.22C453 454.22 456.26 450.94 456.26 446.92C456.28 442.88 453 439.62 448.98 439.62C397.39 439.62 216.81 439.62 191.02 439.62C186.98 439.62 183.72 442.9 183.72 446.92C183.72 450.96 186.98 454.22 191.02 454.22Z" id="bfIkuFiz6"></path><path d="M191.02 454.22C216.81 454.22 423.17 454.22 448.96 454.22C453 454.22 456.26 450.94 456.26 446.92C456.28 442.88 453 439.62 448.98 439.62C397.39 439.62 216.81 439.62 191.02 439.62C186.98 439.62 183.72 442.9 183.72 446.92C183.72 450.96 186.98 454.22 191.02 454.22Z" id="a1odlaZBaT"></path><path d="M191.02 454.22C216.81 454.22 423.17 454.22 448.96 454.22C453 454.22 456.26 450.94 456.26 446.92C456.28 442.88 453 439.62 448.98 439.62C397.39 439.62 216.81 439.62 191.02 439.62C186.98 439.62 183.72 442.9 183.72 446.92C183.72 450.96 186.98 454.22 191.02 454.22Z" id="f5PWwOxsL"></path><path d="M191.02 483.36C216.81 483.36 423.17 483.36 448.96 483.36C453 483.36 456.26 480.08 456.26 476.06C456.28 472.02 453 468.76 448.98 468.76C397.39 468.76 216.81 468.76 191.02 468.76C186.98 468.76 183.72 472.04 183.72 476.06C183.72 480.1 186.98 483.36 191.02 483.36Z" id="c7isTDao9B"></path><path d="M191.02 483.36C216.81 483.36 423.17 483.36 448.96 483.36C453 483.36 456.26 480.08 456.26 476.06C456.28 472.02 453 468.76 448.98 468.76C397.39 468.76 216.81 468.76 191.02 468.76C186.98 468.76 183.72 472.04 183.72 476.06C183.72 480.1 186.98 483.36 191.02 483.36Z" id="b8vGbVNNb"></path><path d="M191.02 483.36C216.81 483.36 423.17 483.36 448.96 483.36C453 483.36 456.26 480.08 456.26 476.06C456.28 472.02 453 468.76 448.98 468.76C397.39 468.76 216.81 468.76 191.02 468.76C186.98 468.76 183.72 472.04 183.72 476.06C183.72 480.1 186.98 483.36 191.02 483.36Z" id="a25b58YV7s"></path><path d="M191.02 483.36C216.81 483.36 423.17 483.36 448.96 483.36C453 483.36 456.26 480.08 456.26 476.06C456.28 472.02 453 468.76 448.98 468.76C397.39 468.76 216.81 468.76 191.02 468.76C186.98 468.76 183.72 472.04 183.72 476.06C183.72 480.1 186.98 483.36 191.02 483.36Z" id="a2Ciw0ju3T"></path><path d="M506.34 171.66C506.34 168.07 506.34 139.36 506.34 135.77C506.34 127.31 499.3 120.87 490.84 121.09C490.64 121.09 490.64 121.09 490.44 121.09C490.44 121.09 490.44 121.09 490.24 121.09C481.78 120.89 474.74 127.34 474.74 135.77C474.74 139.02 474.74 164.99 474.74 168.24C474.74 178.3 466.08 186.36 456.02 185.74C446.56 185.33 439.32 176.68 439.32 167.21C439.32 164.4 439.32 141.82 439.32 138.99C439.32 130.54 432.28 123.49 423.62 123.49C423.5 123.49 422.54 123.49 422.42 123.49C414.36 123.49 407.72 130.14 407.72 138.2C407.72 141.86 407.72 171.23 407.72 174.9C407.72 184.96 399.26 192.99 389 192.6C379.54 191.99 372.5 183.54 372.5 173.88C372.5 168.96 372.5 129.6 372.5 124.67C372.5 116.84 365.66 110.2 357.6 110.79C357.48 110.79 356.52 110.79 356.4 110.79C348.14 110.79 341.52 117.43 341.52 125.49C341.52 130.52 341.52 170.77 341.52 175.8C341.52 185.46 333.68 193.49 323.82 193.49C314.36 193.49 306.52 185.86 306.32 176.4C306.32 172.18 306.32 138.39 306.32 134.17C306.32 124.51 299.08 116.07 289.62 115.45C279.36 115.06 271.1 123.09 271.1 133.16C271.08 137.05 270.92 168.26 270.9 172.16C270.9 182.21 262.66 190.26 252.38 189.86C243.1 189.27 236.06 181.11 235.78 171.88C235.78 167.3 235.78 130.7 235.78 126.11C235.78 116.61 228.64 108.11 219.13 107.56C208.95 107.11 200.55 115.14 200.55 125.21C200.55 130.01 200.55 168.36 200.55 173.16C200.27 182.98 192.03 190.8 181.93 190.4C172.47 189.8 165.43 181.33 165.43 171.68C165.43 168.08 165.43 139.36 165.43 135.77C165.43 127.31 158.19 120.87 149.73 121.09C149.53 121.09 149.53 121.09 149.53 121.09C149.33 121.09 149.33 121.09 149.33 121.09C140.67 120.89 133.63 127.34 133.63 135.77C133.63 139.02 133.63 164.99 133.63 168.24C133.63 178.3 125.17 186.36 115.11 185.74C106.35 185.4 99.83 178.08 98.71 169.6C89.41 188.86 80.19 209.71 71.23 231.99C236.76 245.04 403.06 245.04 568.58 231.99C559.66 209.66 550.62 189.05 541.56 170.18C541.56 170.68 541.56 172.43 541.56 172.68C541.56 182.74 533.3 190.8 523.04 190.38C513.58 189.77 506.34 181.32 506.34 171.66Z" id="o2NNnqpn4c"></path><path d="M506.34 171.66C506.34 168.07 506.34 139.36 506.34 135.77C506.34 127.31 499.3 120.87 490.84 121.09C490.64 121.09 490.64 121.09 490.44 121.09C490.44 121.09 490.44 121.09 490.24 121.09C481.78 120.89 474.74 127.34 474.74 135.77C474.74 139.02 474.74 164.99 474.74 168.24C474.74 178.3 466.08 186.36 456.02 185.74C446.56 185.33 439.32 176.68 439.32 167.21C439.32 164.4 439.32 141.82 439.32 138.99C439.32 130.54 432.28 123.49 423.62 123.49C423.5 123.49 422.54 123.49 422.42 123.49C414.36 123.49 407.72 130.14 407.72 138.2C407.72 141.86 407.72 171.23 407.72 174.9C407.72 184.96 399.26 192.99 389 192.6C379.54 191.99 372.5 183.54 372.5 173.88C372.5 168.96 372.5 129.6 372.5 124.67C372.5 116.84 365.66 110.2 357.6 110.79C357.48 110.79 356.52 110.79 356.4 110.79C348.14 110.79 341.52 117.43 341.52 125.49C341.52 130.52 341.52 170.77 341.52 175.8C341.52 185.46 333.68 193.49 323.82 193.49C314.36 193.49 306.52 185.86 306.32 176.4C306.32 172.18 306.32 138.39 306.32 134.17C306.32 124.51 299.08 116.07 289.62 115.45C279.36 115.06 271.1 123.09 271.1 133.16C271.08 137.05 270.92 168.26 270.9 172.16C270.9 182.21 262.66 190.26 252.38 189.86C243.1 189.27 236.06 181.11 235.78 171.88C235.78 167.3 235.78 130.7 235.78 126.11C235.78 116.61 228.64 108.11 219.13 107.56C208.95 107.11 200.55 115.14 200.55 125.21C200.55 130.01 200.55 168.36 200.55 173.16C200.27 182.98 192.03 190.8 181.93 190.4C172.47 189.8 165.43 181.33 165.43 171.68C165.43 168.08 165.43 139.36 165.43 135.77C165.43 127.31 158.19 120.87 149.73 121.09C149.53 121.09 149.53 121.09 149.53 121.09C149.33 121.09 149.33 121.09 149.33 121.09C140.67 120.89 133.63 127.34 133.63 135.77C133.63 139.02 133.63 164.99 133.63 168.24C133.63 178.3 125.17 186.36 115.11 185.74C106.35 185.4 99.83 178.08 98.71 169.6C89.41 188.86 80.19 209.71 71.23 231.99C236.76 245.04 403.06 245.04 568.58 231.99C559.66 209.66 550.62 189.05 541.56 170.18C541.56 170.68 541.56 172.43 541.56 172.68C541.56 182.74 533.3 190.8 523.04 190.38C513.58 189.77 506.34 181.32 506.34 171.66Z" id="d1g33s02i7"></path></defs><g><g><g><use xlink:href="#b76TKfve7" opacity="1" fill="#c5c5c5" fill-opacity="1"></use><g><use xlink:href="#b76TKfve7" opacity="1" fill-opacity="0" stroke="#000000" stroke-width="1" stroke-opacity="0"></use></g></g><g><use xlink:href="#blvofhgyO" opacity="1" fill="#000000" fill-opacity="0"></use><g><use xlink:href="#blvofhgyO" opacity="1" fill-opacity="0" stroke="#000000" stroke-width="1" stroke-opacity="0"></use></g></g><g><use xlink:href="#b2EYdAqPKd" opacity="1" fill="#000000" fill-opacity="0"></use><g><use xlink:href="#b2EYdAqPKd" opacity="1" fill-opacity="0" stroke="#000000" stroke-width="1" stroke-opacity="0"></use></g></g><g><use xlink:href="#a3oVhG0BN8" opacity="1" fill="#000000" fill-opacity="0"></use><g><use xlink:href="#a3oVhG0BN8" opacity="1" fill-opacity="0" stroke="#000000" stroke-width="1" stroke-opacity="0"></use></g></g><g><use xlink:href="#a33gOF6liv" opacity="1" fill="#457b9d" fill-opacity="1"></use><g><use xlink:href="#a33gOF6liv" opacity="1" fill-opacity="0" stroke="#000000" stroke-width="1" stroke-opacity="0"></use></g></g><g><use xlink:href="#ax5eLO64u" opacity="1" fill="#000000" fill-opacity="0"></use><g><use xlink:href="#ax5eLO64u" opacity="1" fill-opacity="0" stroke="#000000" stroke-width="1" stroke-opacity="0"></use></g></g><g><use xlink:href="#aDZnESeRO" opacity="1" fill="#000000" fill-opacity="0"></use><g><use xlink:href="#aDZnESeRO" opacity="1" fill-opacity="0" stroke="#000000" stroke-width="1" stroke-opacity="0"></use></g></g><g><use xlink:href="#cQ1L3DHKE" opacity="1" fill="#000000" fill-opacity="0"></use><g><use xlink:href="#cQ1L3DHKE" opacity="1" fill-opacity="0" stroke="#000000" stroke-width="1" stroke-opacity="0"></use></g></g><g><use xlink:href="#b16TxZvuMv" opacity="1" fill="#ffffff" fill-opacity="1"></use><g><use xlink:href="#b16TxZvuMv" opacity="1" fill-opacity="0" stroke="#000000" stroke-width="1" stroke-opacity="0"></use></g></g><g><use xlink:href="#b1gns0d1Y5" opacity="1" fill="#000000" fill-opacity="0"></use><g><use xlink:href="#b1gns0d1Y5" opacity="1" fill-opacity="0" stroke="#000000" stroke-width="1" stroke-opacity="0"></use></g></g><g><use xlink:href="#bs5wLcLmW" opacity="1" fill="#000000" fill-opacity="0"></use><g><use xlink:href="#bs5wLcLmW" opacity="1" fill-opacity="0" stroke="#000000" stroke-width="1" stroke-opacity="0"></use></g></g><g><use xlink:href="#bx9ENmYDb" opacity="1" fill="#000000" fill-opacity="0"></use><g><use xlink:href="#bx9ENmYDb" opacity="1" fill-opacity="0" stroke="#000000" stroke-width="1" stroke-opacity="0"></use></g></g><g><use xlink:href="#ajB5xJkX5" opacity="1" fill="#d9d926" fill-opacity="1"></use><g><use xlink:href="#ajB5xJkX5" opacity="1" fill-opacity="0" stroke="#000000" stroke-width="1" stroke-opacity="0"></use></g></g><g><use xlink:href="#a1zuvdUfWo" opacity="1" fill="#000000" fill-opacity="0"></use><g><use xlink:href="#a1zuvdUfWo" opacity="1" fill-opacity="0" stroke="#000000" stroke-width="1" stroke-opacity="0"></use></g></g><g><use xlink:href="#g2fBN6fDxL" opacity="1" fill="#000000" fill-opacity="0"></use><g><use xlink:href="#g2fBN6fDxL" opacity="1" fill-opacity="0" stroke="#000000" stroke-width="1" stroke-opacity="0"></use></g></g><g><use xlink:href="#b2EIIZtzx3" opacity="1" fill="#000000" fill-opacity="0"></use><g><use xlink:href="#b2EIIZtzx3" opacity="1" fill-opacity="0" stroke="#000000" stroke-width="1" stroke-opacity="0"></use></g></g><g><use xlink:href="#ahUirAHpH" opacity="1" fill="#292929" fill-opacity="1"></use><g><use xlink:href="#ahUirAHpH" opacity="1" fill-opacity="0" stroke="#000000" stroke-width="1" stroke-opacity="0"></use></g></g><g><use xlink:href="#cgWEF44NE" opacity="1" fill="#000000" fill-opacity="0"></use><g><use xlink:href="#cgWEF44NE" opacity="1" fill-opacity="0" stroke="#000000" stroke-width="1" stroke-opacity="0"></use></g></g><g><use xlink:href="#co78fsxm7" opacity="1" fill="#424242" fill-opacity="0"></use><g><use xlink:href="#co78fsxm7" opacity="1" fill-opacity="0" stroke="#000000" stroke-width="1" stroke-opacity="0"></use></g></g><g><use xlink:href="#bpr2nutVV" opacity="1" fill="#000000" fill-opacity="0"></use><g><use xlink:href="#bpr2nutVV" opacity="1" fill-opacity="0" stroke="#000000" stroke-width="1" stroke-opacity="0"></use></g></g><g><use xlink:href="#b4duVSeoO7" opacity="1" fill="#c5c5c5" fill-opacity="1"></use><g><use xlink:href="#b4duVSeoO7" opacity="1" fill-opacity="0" stroke="#000000" stroke-width="1" stroke-opacity="0"></use></g></g><g><use xlink:href="#d1VOEBh5Dy" opacity="1" fill="#000000" fill-opacity="0"></use><g><use xlink:href="#d1VOEBh5Dy" opacity="1" fill-opacity="0" stroke="#000000" stroke-width="1" stroke-opacity="0"></use></g></g><g><use xlink:href="#a1fSoSVg9" opacity="1" fill="#000000" fill-opacity="0"></use><g><use xlink:href="#a1fSoSVg9" opacity="1" fill-opacity="0" stroke="#000000" stroke-width="1" stroke-opacity="0"></use></g></g><g><use xlink:href="#ckuzlLPy2" opacity="1" fill="#000000" fill-opacity="0"></use><g><use xlink:href="#ckuzlLPy2" opacity="1" fill-opacity="0" stroke="#000000" stroke-width="1" stroke-opacity="0"></use></g></g><g><use xlink:href="#b1koaxlfrr" opacity="1" fill="#d9d926" fill-opacity="1"></use><g><use xlink:href="#b1koaxlfrr" opacity="1" fill-opacity="0" stroke="#000000" stroke-width="1" stroke-opacity="0"></use></g></g><g><use xlink:href="#hDQFinONJ" opacity="1" fill="#000000" fill-opacity="0"></use><g><use xlink:href="#hDQFinONJ" opacity="1" fill-opacity="0" stroke="#000000" stroke-width="1" stroke-opacity="0"></use></g></g><g><use xlink:href="#a1VIAE7qIQ" opacity="1" fill="#80803e" fill-opacity="0"></use><g><use xlink:href="#a1VIAE7qIQ" opacity="1" fill-opacity="0" stroke="#000000" stroke-width="1" stroke-opacity="0"></use></g></g><g><use xlink:href="#hl06IlROX" opacity="1" fill="#000000" fill-opacity="0"></use><g><use xlink:href="#hl06IlROX" opacity="1" fill-opacity="0" stroke="#000000" stroke-width="1" stroke-opacity="0"></use></g></g><g><use xlink:href="#c7idEiAw5" opacity="1" fill="#ffdb6f" fill-opacity="1"></use><g><use xlink:href="#c7idEiAw5" opacity="1" fill-opacity="0" stroke="#000000" stroke-width="1" stroke-opacity="0"></use></g></g><g><use xlink:href="#b63chtwg9" opacity="1" fill="#000000" fill-opacity="0"></use><g><use xlink:href="#b63chtwg9" opacity="1" fill-opacity="0" stroke="#000000" stroke-width="1" stroke-opacity="0"></use></g></g><g><use xlink:href="#d9V4lY2m" opacity="1" fill="#000000" fill-opacity="0"></use><g><use xlink:href="#d9V4lY2m" opacity="1" fill-opacity="0" stroke="#000000" stroke-width="1" stroke-opacity="0"></use></g></g><g><use xlink:href="#d1NR8qIJhm" opacity="1" fill="#000000" fill-opacity="0"></use><g><use xlink:href="#d1NR8qIJhm" opacity="1" fill-opacity="0" stroke="#000000" stroke-width="1" stroke-opacity="0"></use></g></g><g><use xlink:href="#a2vavY6V5j" opacity="1" fill="#6f6f6f" fill-opacity="1"></use><g><use xlink:href="#a2vavY6V5j" opacity="1" fill-opacity="0" stroke="#000000" stroke-width="1" stroke-opacity="0"></use></g></g><g><use xlink:href="#b3LkbMTCIo" opacity="1" fill="#000000" fill-opacity="0"></use><g><use xlink:href="#b3LkbMTCIo" opacity="1" fill-opacity="0" stroke="#000000" stroke-width="1" stroke-opacity="0"></use></g></g><g><use xlink:href="#b1WjsosOBn" opacity="1" fill="#000000" fill-opacity="0"></use><g><use xlink:href="#b1WjsosOBn" opacity="1" fill-opacity="0" stroke="#000000" stroke-width="1" stroke-opacity="0"></use></g></g><g><use xlink:href="#a1oYTV449" opacity="1" fill="#000000" fill-opacity="0"></use><g><use xlink:href="#a1oYTV449" opacity="1" fill-opacity="0" stroke="#000000" stroke-width="1" stroke-opacity="0"></use></g></g><g><use xlink:href="#f4v8C5YsBW" opacity="1" fill="#ffffff" fill-opacity="1"></use><g><use xlink:href="#f4v8C5YsBW" opacity="1" fill-opacity="0" stroke="#000000" stroke-width="1" stroke-opacity="0"></use></g></g><g><use xlink:href="#a3uYSyqazc" opacity="1" fill="#000000" fill-opacity="0"></use><g><use xlink:href="#a3uYSyqazc" opacity="1" fill-opacity="0" stroke="#000000" stroke-width="1" stroke-opacity="0"></use></g></g><g><use xlink:href="#d2i1DU8qEo" opacity="1" fill="#000000" fill-opacity="0"></use><g><use xlink:href="#d2i1DU8qEo" opacity="1" fill-opacity="0" stroke="#000000" stroke-width="1" stroke-opacity="0"></use></g></g><g><use xlink:href="#a9jDPqAA" opacity="1" fill="#000000" fill-opacity="0"></use><g><use xlink:href="#a9jDPqAA" opacity="1" fill-opacity="0" stroke="#000000" stroke-width="1" stroke-opacity="0"></use></g></g><g><use xlink:href="#c2m6pNgDBH" opacity="1" fill="#d9d926" fill-opacity="1"></use><g><use xlink:href="#c2m6pNgDBH" opacity="1" fill-opacity="0" stroke="#000000" stroke-width="1" stroke-opacity="0"></use></g></g><g><use xlink:href="#c2PirFfPpx" opacity="1" fill="#000000" fill-opacity="0"></use><g><use xlink:href="#c2PirFfPpx" opacity="1" fill-opacity="0" stroke="#000000" stroke-width="1" stroke-opacity="0"></use></g></g><g><use xlink:href="#c5KBFU6PB" opacity="1" fill="#000000" fill-opacity="0"></use><g><use xlink:href="#c5KBFU6PB" opacity="1" fill-opacity="0" stroke="#000000" stroke-width="1" stroke-opacity="0"></use></g></g><g><use xlink:href="#a29aErvymo" opacity="1" fill="#000000" fill-opacity="0"></use><g><use xlink:href="#a29aErvymo" opacity="1" fill-opacity="0" stroke="#000000" stroke-width="1" stroke-opacity="0"></use></g></g><g><use xlink:href="#cRJlbZl4g" opacity="1" fill="#777777" fill-opacity="1"></use><g><use xlink:href="#cRJlbZl4g" opacity="1" fill-opacity="0" stroke="#000000" stroke-width="1" stroke-opacity="0"></use></g></g><g><use xlink:href="#cjtW7IzDH" opacity="1" fill="#000000" fill-opacity="0"></use><g><use xlink:href="#cjtW7IzDH" opacity="1" fill-opacity="0" stroke="#000000" stroke-width="1" stroke-opacity="0"></use></g></g><g><use xlink:href="#dGjoZPmwN" opacity="1" fill="#000000" fill-opacity="0"></use><g><use xlink:href="#dGjoZPmwN" opacity="1" fill-opacity="0" stroke="#000000" stroke-width="1" stroke-opacity="0"></use></g></g><g><use xlink:href="#h1sP40ZSZ" opacity="1" fill="#000000" fill-opacity="0"></use><g><use xlink:href="#h1sP40ZSZ" opacity="1" fill-opacity="0" stroke="#000000" stroke-width="1" stroke-opacity="0"></use></g></g><g><use xlink:href="#b1fKVxHicv" opacity="1" fill="#292929" fill-opacity="1"></use><g><use xlink:href="#b1fKVxHicv" opacity="1" fill-opacity="0" stroke="#000000" stroke-width="1" stroke-opacity="0"></use></g></g><g><use xlink:href="#hbSAh01Sa" opacity="1" fill="#ec0000" fill-opacity="0"></use><g><use xlink:href="#hbSAh01Sa" opacity="1" fill-opacity="0" stroke="#000000" stroke-width="1" stroke-opacity="0"></use></g></g><g><use xlink:href="#bkLdMV11X" opacity="1" fill="#de0000" fill-opacity="0"></use><g><use xlink:href="#bkLdMV11X" opacity="1" fill-opacity="0" stroke="#000000" stroke-width="1" stroke-opacity="0"></use></g></g><g><use xlink:href="#a8is3Jx8Ot" opacity="1" fill="#c31a1a" fill-opacity="0"></use><g><use xlink:href="#a8is3Jx8Ot" opacity="1" fill-opacity="0" stroke="#000000" stroke-width="1" stroke-opacity="0"></use></g></g><g><use xlink:href="#ddHKyhE25" opacity="1" fill="#c5c5c5" fill-opacity="1"></use><g><use xlink:href="#ddHKyhE25" opacity="1" fill-opacity="0" stroke="#000000" stroke-width="1" stroke-opacity="0"></use></g></g><g><use xlink:href="#aFGorrRDn" opacity="1" fill="#000000" fill-opacity="0"></use><g><use xlink:href="#aFGorrRDn" opacity="1" fill-opacity="0" stroke="#000000" stroke-width="1" stroke-opacity="0"></use></g></g><g><use xlink:href="#c26Fhz1Aou" opacity="1" fill="#000000" fill-opacity="0"></use><g><use xlink:href="#c26Fhz1Aou" opacity="1" fill-opacity="0" stroke="#000000" stroke-width="1" stroke-opacity="0"></use></g></g><g><use xlink:href="#a3beE6p3k6" opacity="1" fill="#000000" fill-opacity="0"></use><g><use xlink:href="#a3beE6p3k6" opacity="1" fill-opacity="0" stroke="#000000" stroke-width="1" stroke-opacity="0"></use></g></g><g><use xlink:href="#a2x8IR1bwe" opacity="1" fill="#d9d926" fill-opacity="1"></use><g><use xlink:href="#a2x8IR1bwe" opacity="1" fill-opacity="0" stroke="#000000" stroke-width="1" stroke-opacity="0"></use></g></g><g><use xlink:href="#a3O79Fn9zv" opacity="1" fill="#000000" fill-opacity="0"></use><g><use xlink:href="#a3O79Fn9zv" opacity="1" fill-opacity="0" stroke="#000000" stroke-width="1" stroke-opacity="0"></use></g></g><g><use xlink:href="#b6xvesDzw" opacity="1" fill="#000000" fill-opacity="0"></use><g><use xlink:href="#b6xvesDzw" opacity="1" fill-opacity="0" stroke="#000000" stroke-width="1" stroke-opacity="0"></use></g></g><g><use xlink:href="#a1pHqeCYA" opacity="1" fill="#000000" fill-opacity="0"></use><g><use xlink:href="#a1pHqeCYA" opacity="1" fill-opacity="0" stroke="#000000" stroke-width="1" stroke-opacity="0"></use></g></g><g><use xlink:href="#b26GkXIGVW" opacity="1" fill="#ffdb6f" fill-opacity="1"></use><g><use xlink:href="#b26GkXIGVW" opacity="1" fill-opacity="0" stroke="#000000" stroke-width="1" stroke-opacity="0"></use></g></g><g><use xlink:href="#b5m0yspBh" opacity="1" fill="#000000" fill-opacity="0"></use><g><use xlink:href="#b5m0yspBh" opacity="1" fill-opacity="0" stroke="#000000" stroke-width="1" stroke-opacity="0"></use></g></g><g><use xlink:href="#a5vujdvFX" opacity="1" fill="#000000" fill-opacity="0"></use><g><use xlink:href="#a5vujdvFX" opacity="1" fill-opacity="0" stroke="#000000" stroke-width="1" stroke-opacity="0"></use></g></g><g><use xlink:href="#b1r8xwioBi" opacity="1" fill="#000000" fill-opacity="0"></use><g><use xlink:href="#b1r8xwioBi" opacity="1" fill-opacity="0" stroke="#000000" stroke-width="1" stroke-opacity="0"></use></g></g><g><use xlink:href="#deYHpDDbV" opacity="1" fill="#6f6f6f" fill-opacity="1"></use><g><use xlink:href="#deYHpDDbV" opacity="1" fill-opacity="0" stroke="#000000" stroke-width="1" stroke-opacity="0"></use></g></g><g><use xlink:href="#bfIkuFiz6" opacity="1" fill="#000000" fill-opacity="0"></use><g><use xlink:href="#bfIkuFiz6" opacity="1" fill-opacity="0" stroke="#000000" stroke-width="1" stroke-opacity="0"></use></g></g><g><use xlink:href="#a1odlaZBaT" opacity="1" fill="#000000" fill-opacity="0"></use><g><use xlink:href="#a1odlaZBaT" opacity="1" fill-opacity="0" stroke="#000000" stroke-width="1" stroke-opacity="0"></use></g></g><g><use xlink:href="#f5PWwOxsL" opacity="1" fill="#000000" fill-opacity="0"></use><g><use xlink:href="#f5PWwOxsL" opacity="1" fill-opacity="0" stroke="#000000" stroke-width="1" stroke-opacity="0"></use></g></g><g><use xlink:href="#c7isTDao9B" opacity="1" fill="#6f6f6f" fill-opacity="1"></use><g><use xlink:href="#c7isTDao9B" opacity="1" fill-opacity="0" stroke="#000000" stroke-width="1" stroke-opacity="0"></use></g></g><g><use xlink:href="#b8vGbVNNb" opacity="1" fill="#000000" fill-opacity="0"></use><g><use xlink:href="#b8vGbVNNb" opacity="1" fill-opacity="0" stroke="#000000" stroke-width="1" stroke-opacity="0"></use></g></g><g><use xlink:href="#a25b58YV7s" opacity="1" fill="#000000" fill-opacity="0"></use><g><use xlink:href="#a25b58YV7s" opacity="1" fill-opacity="0" stroke="#000000" stroke-width="1" stroke-opacity="0"></use></g></g><g><use xlink:href="#a2Ciw0ju3T" opacity="1" fill="#000000" fill-opacity="0"></use><g><use xlink:href="#a2Ciw0ju3T" opacity="1" fill-opacity="0" stroke="#000000" stroke-width="1" stroke-opacity="0"></use></g></g><g><use xlink:href="#o2NNnqpn4c" opacity="1" fill="#457b9d" fill-opacity="1"></use><g><use xlink:href="#o2NNnqpn4c" opacity="1" fill-opacity="0" stroke="#000000" stroke-width="1" stroke-opacity="0"></use></g></g><g><use xlink:href="#d1g33s02i7" opacity="1" fill="#000000" fill-opacity="0"></use><g><use xlink:href="#d1g33s02i7" opacity="1" fill-opacity="0" stroke="#000000" stroke-width="1" stroke-opacity="0"></use></g></g></g></g></svg>